<svg id="svg" version="1.1" xmlns="http://www.w3.org/2000/svg" xmlns:xlink="http://www.w3.org/1999/xlink" width="400" height="400" viewBox="0, 0, 400,400"><g id="svgg"><path id="path0" d="M207.900 41.491 C 206.056 41.684,205.937 42.292,207.700 42.519 C 208.415 42.610,208.280 42.607,207.400 42.511 C 202.951 42.025,201.638 42.176,195.400 43.891 C 192.600 44.661,191.842 44.958,186.603 47.332 C 180.461 50.116,166.400 61.378,166.400 63.514 C 166.400 63.747,165.860 64.478,165.200 65.138 C 164.540 65.798,164.000 66.622,164.000 66.969 C 164.000 67.316,163.816 67.600,163.591 67.600 C 163.367 67.600,162.964 68.095,162.696 68.700 C 162.429 69.305,161.997 69.980,161.737 70.200 C 159.294 72.269,153.045 88.962,154.400 89.800 C 154.620 89.936,154.797 90.352,154.794 90.724 C 154.789 91.307,154.734 91.318,154.394 90.800 C 154.044 90.267,153.956 90.267,153.606 90.800 C 153.091 91.585,153.087 94.283,153.600 94.600 C 153.820 94.736,153.973 95.422,153.940 96.124 C 153.883 97.333,153.871 97.342,153.713 96.300 C 153.622 95.695,153.402 95.200,153.226 95.200 C 152.553 95.200,152.409 98.722,152.404 115.300 L 152.400 132.400 146.128 132.400 C 139.809 132.400,138.485 132.609,135.334 134.102 C 133.569 134.938,130.400 137.588,130.400 138.228 C 130.400 138.437,130.044 138.830,129.609 139.101 C 128.685 139.679,127.364 142.134,126.569 144.753 C 125.989 146.664,125.701 186.642,126.252 188.700 C 126.533 189.746,127.200 189.911,127.200 188.933 C 127.200 188.567,127.314 188.381,127.454 188.521 C 127.593 188.660,127.480 189.325,127.201 189.997 C 126.776 191.024,126.791 191.331,127.295 191.910 C 127.625 192.290,127.814 192.825,127.715 193.100 C 127.615 193.375,127.818 193.709,128.167 193.843 C 128.515 193.976,128.800 194.336,128.800 194.643 C 128.800 197.036,137.099 202.418,139.563 201.622 C 140.473 201.329,143.128 201.207,146.800 201.291 L 152.600 201.424 146.300 201.512 C 142.425 201.566,140.000 201.754,140.000 202.000 C 140.000 202.249,142.333 202.400,146.200 202.400 L 152.400 202.400 152.400 274.151 C 152.400 336.126,152.479 345.967,152.976 346.380 C 153.293 346.643,153.467 347.081,153.362 347.354 C 153.111 348.008,155.094 351.527,156.050 352.124 C 156.462 352.382,156.800 352.761,156.800 352.968 C 156.800 354.192,161.335 357.193,164.753 358.231 C 167.472 359.056,207.738 359.053,210.459 358.227 C 213.815 357.209,218.400 354.231,218.400 353.069 C 218.400 352.807,218.756 352.370,219.191 352.099 C 220.059 351.557,221.245 349.431,222.183 346.737 C 222.715 345.212,222.789 336.298,222.794 273.700 L 222.800 202.400 235.400 202.400 C 243.414 202.400,248.000 202.256,248.000 202.006 C 248.000 201.757,243.304 201.570,235.300 201.500 L 222.600 201.388 235.476 201.294 C 243.732 201.234,248.441 201.344,248.600 201.600 C 248.969 202.197,250.633 202.083,251.180 201.424 C 251.443 201.107,251.879 200.932,252.149 201.036 C 253.426 201.526,260.800 195.366,260.800 193.809 C 260.800 193.474,260.975 193.200,261.190 193.200 C 261.670 193.200,262.946 190.812,262.633 190.500 C 262.509 190.375,262.626 190.010,262.894 189.687 C 263.268 189.236,268.299 170.021,271.635 156.300 C 271.836 155.475,272.188 154.035,272.419 153.100 C 273.467 148.844,273.669 147.227,273.452 144.842 C 273.324 143.435,272.980 141.995,272.687 141.642 C 272.394 141.289,271.944 140.505,271.686 139.900 C 271.428 139.295,271.033 138.800,270.809 138.800 C 270.584 138.800,270.400 138.530,270.400 138.200 C 270.400 137.474,269.727 137.401,269.487 138.100 C 269.392 138.375,269.372 138.247,269.442 137.815 C 269.590 136.907,267.351 134.679,265.438 133.829 C 262.345 132.455,261.444 132.400,242.140 132.400 L 222.800 132.400 222.800 121.817 L 222.800 111.234 239.233 111.117 C 254.341 111.009,255.706 110.944,256.177 110.300 C 256.458 109.915,256.816 109.600,256.973 109.600 C 257.522 109.600,258.448 108.402,258.205 108.008 C 258.059 107.772,258.230 107.713,258.625 107.865 C 259.172 108.075,259.243 107.948,259.020 107.161 C 258.817 106.446,258.851 106.351,259.152 106.788 C 259.621 107.471,259.682 107.424,260.549 105.720 C 261.558 103.735,261.540 48.522,260.529 46.886 C 259.356 44.987,256.647 42.361,255.251 41.771 C 253.975 41.231,212.718 40.987,207.900 41.491 M235.100 58.300 C 230.315 58.363,222.485 58.363,217.700 58.300 C 212.915 58.236,216.830 58.184,226.400 58.184 C 235.970 58.184,239.885 58.236,235.100 58.300 M243.600 76.200 L 243.600 93.200 231.100 93.204 C 218.243 93.209,216.779 93.356,213.689 94.954 C 211.900 95.879,207.956 99.624,207.327 100.995 C 207.023 101.658,206.433 102.740,206.016 103.400 C 205.178 104.728,204.983 106.219,205.600 106.600 C 205.857 106.759,206.000 113.263,206.000 124.800 C 206.000 136.337,205.857 142.841,205.600 143.000 C 204.937 143.410,205.144 144.223,206.200 145.362 C 206.750 145.956,207.200 146.530,207.200 146.638 C 207.200 147.901,211.067 150.152,212.337 149.628 C 213.073 149.324,219.792 149.223,234.200 149.298 L 255.000 149.407 233.900 149.504 C 220.164 149.566,212.800 149.740,212.800 150.000 C 212.800 150.262,220.081 150.400,233.843 150.400 C 251.384 150.400,254.851 150.490,254.678 150.942 C 254.563 151.240,252.623 158.890,250.366 167.942 L 246.262 184.400 230.031 184.406 C 213.652 184.412,210.516 184.653,210.087 185.938 C 210.003 186.192,209.755 186.400,209.538 186.400 C 208.902 186.400,207.926 187.557,208.195 187.992 C 208.341 188.228,208.170 188.287,207.775 188.135 C 207.228 187.925,207.157 188.052,207.380 188.839 C 207.583 189.554,207.549 189.649,207.248 189.212 C 207.026 188.888,206.779 188.708,206.701 188.812 C 205.437 190.479,205.161 191.340,205.571 192.337 C 205.883 193.096,205.978 214.678,205.903 267.800 L 205.798 342.200 205.699 267.500 C 205.633 218.033,205.465 192.800,205.200 192.800 C 204.935 192.800,204.800 217.733,204.800 266.800 L 204.800 340.800 187.600 340.800 L 170.400 340.800 170.400 266.800 C 170.400 217.863,170.265 192.800,170.001 192.800 C 169.738 192.800,169.567 218.166,169.500 267.500 L 169.398 342.200 169.299 267.324 C 169.233 217.730,169.335 192.364,169.600 192.200 C 170.213 191.821,170.075 190.404,169.400 190.145 C 169.070 190.018,168.800 189.688,168.800 189.412 C 168.800 188.626,164.828 185.104,164.209 185.341 C 163.906 185.457,163.443 185.293,163.180 184.976 C 162.789 184.505,161.029 184.400,153.551 184.400 L 144.400 184.400 144.400 167.400 L 144.400 150.400 153.000 150.400 C 158.574 150.400,161.600 150.257,161.600 149.992 C 161.600 149.762,162.017 149.689,162.557 149.825 C 163.854 150.151,165.445 149.241,167.572 146.957 C 170.444 143.874,170.360 144.638,170.404 121.000 C 170.441 100.805,170.627 96.357,171.621 91.800 C 171.861 90.700,172.105 89.314,172.164 88.719 C 172.222 88.125,172.513 87.345,172.811 86.987 C 173.234 86.477,173.249 86.171,172.882 85.582 C 172.495 84.963,172.516 84.870,173.002 85.056 C 173.359 85.193,173.689 84.990,173.836 84.542 C 173.969 84.134,174.691 82.485,175.439 80.879 C 176.188 79.272,176.800 77.787,176.800 77.579 C 176.800 77.370,176.984 77.200,177.209 77.200 C 177.433 77.200,177.837 76.717,178.106 76.127 C 179.547 72.965,187.754 66.099,193.200 63.501 C 201.053 59.754,204.299 59.340,226.500 59.261 L 243.600 59.200 243.600 76.200 M169.500 131.300 C 169.438 137.295,169.387 132.390,169.387 120.400 C 169.387 108.410,169.438 103.505,169.500 109.500 C 169.562 115.495,169.562 125.305,169.500 131.300 M204.800 124.800 C 204.800 136.267,204.939 142.400,205.200 142.400 C 205.461 142.400,205.600 136.267,205.600 124.800 C 205.600 113.333,205.461 107.200,205.200 107.200 C 204.939 107.200,204.800 113.333,204.800 124.800 M246.300 110.300 C 241.955 110.364,234.845 110.364,230.500 110.300 C 226.155 110.235,229.710 110.182,238.400 110.182 C 247.090 110.182,250.645 110.235,246.300 110.300 M272.687 147.500 C 272.595 148.105,272.520 147.610,272.520 146.400 C 272.520 145.190,272.595 144.695,272.687 145.300 C 272.778 145.905,272.778 146.895,272.687 147.500 M161.857 149.000 C 161.362 149.495,159.787 149.600,152.829 149.600 C 145.603 149.600,144.400 149.514,144.400 149.000 C 144.400 148.484,145.670 148.400,153.429 148.400 C 161.454 148.400,162.390 148.467,161.857 149.000 M196.300 341.900 C 191.515 341.963,183.685 341.963,178.900 341.900 C 174.115 341.836,178.030 341.784,187.600 341.784 C 197.170 341.784,201.085 341.836,196.300 341.900 " stroke="none" fill="#2695be" fill-rule="evenodd"></path><path id="path1" d="" stroke="none" fill="#201c1c" fill-rule="evenodd"></path><path id="path2" d="" stroke="none" fill="#201c1c" fill-rule="evenodd"></path><path id="path3" d="" stroke="none" fill="#201c1c" fill-rule="evenodd"></path><path id="path4" d="" stroke="none" fill="#201c1c" fill-rule="evenodd"></path></g></svg>