<?xml version="1.0" encoding="UTF-8"?>
<svg width="72px" height="72px" viewBox="0 0 72 72" version="1.1" xmlns="http://www.w3.org/2000/svg" xmlns:xlink="http://www.w3.org/1999/xlink">
    <!-- Generator: Sketch 61 (89581) - https://sketch.com -->
    <title>sort_icon_instagram</title>
    <desc>Created with Sketch.</desc>
    <g id="search" stroke="none" stroke-width="1" fill="none" fill-rule="evenodd">
        <g id="Artboard" transform="translate(-359.000000, -319.000000)" fill="#51B8B9" fill-rule="nonzero">
            <g id="sort_icon_instagram" transform="translate(359.000000, 319.000000)">
                <path d="M10.546875,72 L61.453125,72 C67.2687378,72 72,67.2687378 72,61.453125 L72,10.546875 C72,4.73126217 67.2687378,0 61.453125,0 L10.546875,0 C4.73126217,0 0,4.73126217 0,10.546875 L0,61.453125 C0,67.2687378 4.73126217,72 10.546875,72 Z M3.6,10.0513274 C3.6,6.49413717 6.49413717,3.6 10.0513274,3.6 L61.9486726,3.6 C65.5058628,3.6 68.4,6.49413717 68.4,10.0513274 L68.4,61.9486726 C68.4,65.5058628 65.5058628,68.4 61.9486726,68.4 L10.0513274,68.4 C6.49413717,68.4 3.6,65.5058628 3.6,61.9486726 L3.6,10.0513274 Z" id="Shape"></path>
                <path d="M36,56.25 C47.165625,56.25 56.25,47.165625 56.25,36 C56.25,24.834375 47.165625,15.75 36,15.75 C24.834375,15.75 15.75,24.834375 15.75,36 C15.75,47.165625 24.834375,56.25 36,56.25 Z M36,19.4318182 C45.1359224,19.4318182 52.5681818,26.8640776 52.5681818,36 C52.5681818,45.1359224 45.1359224,52.5681818 36,52.5681818 C26.8640776,52.5681818 19.4318182,45.1359224 19.4318182,36 C19.4318182,26.8640776 26.8640776,19.4318182 36,19.4318182 Z" id="Shape"></path>
                <path d="M58.5,22.5 C62.221875,22.5 65.25,19.471875 65.25,15.75 C65.25,12.028125 62.221875,9 58.5,9 C54.778125,9 51.75,12.028125 51.75,15.75 C51.75,19.471875 54.778125,22.5 58.5,22.5 Z M58.5,12.375 C60.3606445,12.375 61.875,13.8893555 61.875,15.75 C61.875,17.6106445 60.3606445,19.125 58.5,19.125 C56.6393555,19.125 55.125,17.6106445 55.125,15.75 C55.125,13.8893555 56.6393555,12.375 58.5,12.375 Z" id="Shape"></path>
            </g>
        </g>
    </g>
</svg>