<?xml version="1.0" encoding="UTF-8"?>
<svg width="84px" height="84px" viewBox="0 0 84 84" version="1.1" xmlns="http://www.w3.org/2000/svg" xmlns:xlink="http://www.w3.org/1999/xlink">
    <!-- Generator: Sketch 61 (89581) - https://sketch.com -->
    <title>sort_icon_recommend</title>
    <desc>Created with Sketch.</desc>
    <g id="search" stroke="none" stroke-width="1" fill="none" fill-rule="evenodd">
        <g id="Artboard" transform="translate(-134.000000, -91.000000)" fill="#51B8B9" fill-rule="nonzero">
            <g id="sort_icon_recommend" transform="translate(134.000000, 91.000000)">
                <path d="M64.4622222,35.6714053 C64.4622222,33.6018085 62.3566576,31.2132603 60.2959469,31.2132603 L44.8505478,31.2132603 L46.6040105,27.7824759 C47.7817427,25.3015346 47.3460203,22.3983057 45.488433,20.3757012 C44.6945213,19.5111699 43.5712544,19.0753636 42.4056968,19.1796482 C41.2394988,19.2845765 40.2104248,19.9128584 39.5818312,20.9048486 C39.5767051,20.9125734 39.5715789,20.9209418 39.5664528,20.9286666 L32.1521231,33.2406752 C31.7074298,32.8132375 31.0916516,31.2164789 30.4316603,31.2132603 L25.1414775,31.2132603 C24.4782825,31.2132603 23.854174,32.7656013 23.3832094,33.2355254 C22.9096816,33.7093118 22.6488889,34.3395248 22.6488889,35.0109367 L22.6488889,57.2061549 C22.6488889,58.5869589 23.0166631,60.9777778 24.3911111,60.9777778 L31.36,60.9777778 C32.5505474,60.9777778 32.6205247,58.8669822 32.8659389,57.7443144 L38.3227216,59.613067 C40.9665314,60.5187971 43.7237573,60.9777778 46.5175069,60.9777778 L56.9671558,60.9777778 C59.0278666,60.9777778 60.7041164,59.2937762 60.7041164,57.2235357 L60.7041164,55.6129194 C60.7041164,54.9994434 60.5567396,54.420085 60.2959469,53.9076748 C61.4922613,53.2813239 62.3105223,52.0228289 62.3105223,50.5763642 L62.3105223,48.965748 C62.3105223,48.2936924 62.1336704,47.6621917 61.82482,47.1156637 C62.8820878,46.4519765 63.5875736,45.2720167 63.5875736,43.9291928 L63.5875736,42.3192203 C63.5875736,41.564767 63.3645862,40.8618122 62.9820474,40.2727979 C63.8810454,39.5859365 64.4622222,38.5006051 64.4622222,37.2820215 L64.4622222,35.6714053 Z M60.9777778,37.4352465 C60.9777778,38.1032614 60.4367375,38.647164 59.7722384,38.647164 L50.8765442,38.647164 C50.2350423,38.647164 49.7145786,39.1703815 49.7145786,39.8152773 C49.7145786,40.4601732 50.2350423,40.9833906 50.8765442,40.9833906 L58.9461535,40.9833906 C59.6106525,40.9833906 60.1516929,41.5272933 60.1516929,42.1953081 L60.1516929,43.7175057 C60.1516929,44.3855205 59.6106525,44.9294232 58.9461535,44.9294232 L50.8765442,44.9294232 C50.2350423,44.9294232 49.7145786,45.4520323 49.7145786,46.0975365 C49.7145786,46.7424325 50.2350423,47.2656498 50.8765442,47.2656498 L57.7400089,47.2656498 C58.4051132,47.2656498 58.9455482,47.8089442 58.9455482,48.4775673 L58.9455482,49.9991566 C58.9455482,50.6677797 58.4051132,51.2116825 57.7400089,51.2116825 L50.8765442,51.2116825 C50.2350423,51.2116825 49.7145786,51.7342916 49.7145786,52.3797958 C49.7145786,53.0246917 50.2350423,53.5479091 50.8765442,53.5479091 L56.2227966,53.5479091 C56.8872956,53.5479091 57.4283359,54.0912034 57.4283359,54.7598266 L57.4283359,56.2814158 C57.4283359,56.950039 56.8872956,57.4933333 56.2227966,57.4933333 L46.353351,57.4933333 C43.9707161,57.4933333 41.618341,57.1015287 39.3634014,56.3288705 L33.514841,54.3242177 L33.514841,44.3751779 C33.514841,43.730282 32.9943772,43.2070646 32.3528754,43.2070646 C31.7107684,43.2070646 31.1909098,43.730282 31.1909098,44.3751779 L31.1909098,56.2655977 C31.1909098,56.2826327 31.1769905,56.2960172 31.160045,56.2960172 L26.1641981,56.2960172 C26.1472528,56.2960172 26.1333333,56.2826327 26.1333333,56.2655977 L26.1333333,35.2888384 C26.1333333,35.2839712 26.1333333,35.2760622 26.1424112,35.2669362 C26.1514891,35.2578103 26.1593566,35.2584187 26.1617773,35.2584187 L31.1606503,35.2943139 C31.1769905,35.2943139 31.1909098,35.3083069 31.1909098,35.3253419 L31.1909098,39.6358015 C31.1909098,40.2806974 31.7107684,40.8039148 32.3528754,40.8039148 C32.9943772,40.8039148 33.514841,40.2806974 33.514841,39.6358015 L33.514841,36.6364274 C33.7260524,36.4581685 33.9100303,36.2476647 34.0607229,36.0097832 C34.0655644,36.0018742 34.0704059,35.9939651 34.0746421,35.9866644 L41.7684282,23.2025162 C41.9723774,22.8867607 42.3028114,22.687208 42.6762139,22.6537464 C43.0532476,22.6202848 43.4163618,22.7608234 43.6729626,23.0406839 C44.7840921,24.2513847 45.0406928,25.9913866 44.3271734,27.4740389 C44.3168852,27.495941 44.3065968,27.5178431 44.2975191,27.5403536 L42.0371328,33.0901085 C41.8900715,33.4508852 41.9318296,33.8609415 42.1472774,34.1839979 C42.3633303,34.5070542 42.7246291,34.7011314 43.111951,34.7011314 L59.7722384,34.7011314 C60.4373428,34.7011314 60.9777778,35.2450341 60.9777778,35.913049 L60.9777778,37.4352465 Z" id="Shape"></path>
                <path d="M41.8133333,83.6266667 C39.1591667,83.6266667 36.7621224,82.380612 35.2366146,80.208151 C33.6798437,77.9916667 30.7672787,77.2113671 28.3115365,78.3527865 C25.9042838,79.471237 23.2048176,79.3519271 20.9066667,78.0248437 C18.6078776,76.6977604 17.1551042,74.420026 16.9203125,71.7760676 C16.6810546,69.0778776 14.548151,66.945612 11.850599,66.7063542 C9.20664071,66.4715625 6.92890625,65.0187891 5.60182292,62.72 C4.27473958,60.4212109 4.15542965,57.7223829 5.27388013,55.3151301 C6.41529952,52.85875 5.635,49.9461849 3.41851571,48.3900521 C1.24605465,46.8645442 0,44.4675 0,41.8133333 C0,39.1591667 1.24605465,36.7621224 3.41851571,35.2366146 C5.635,33.6804817 6.4159375,30.7672787 5.27388013,28.3115365 C4.15542965,25.9042838 4.27473958,23.2054558 5.60182292,20.9066667 C6.92890625,18.6078776 9.20664071,17.1551042 11.850599,16.9203125 C14.5487891,16.6810546 16.6810546,14.548151 16.9203125,11.850599 C17.1551042,9.20600256 18.6078776,6.92890625 20.9066667,5.60182292 C23.2054558,4.27473958 25.9042838,4.15479167 28.3115365,5.27388013 C30.7679167,6.41529952 33.6804817,5.635 35.2366146,3.41787756 C36.7621224,1.24605465 39.1591667,0 41.8133333,0 C44.4675,0 46.8645442,1.24605465 48.3900521,3.41851571 L48.3894141,3.41851571 C49.9461849,5.635 52.85875,6.41529952 55.3151301,5.27388013 C57.7223829,4.15542965 60.4212109,4.27473958 62.72,5.60182292 C65.0187891,6.92890625 66.4715625,9.20664071 66.7063542,11.850599 C66.945612,14.5487891 69.0778776,16.6810546 71.7760676,16.9203125 C74.420026,17.1551042 76.6971224,18.6078776 78.0248437,20.9066667 C79.3519271,23.2054558 79.471237,25.9042838 78.3527865,28.3115365 C77.2107292,30.7679167 77.9910287,33.6804817 80.208151,35.2366146 C82.380612,36.7621224 83.6266667,39.1591667 83.6266667,41.8133333 C83.6266667,44.4675 82.380612,46.8645442 80.208151,48.3900521 C77.9916667,49.9461849 77.2107292,52.85875 78.3527865,55.3151301 C79.471237,57.7223829 79.3519271,60.4212109 78.0248437,62.72 C76.6977604,65.0187891 74.420026,66.4715625 71.7760676,66.7063542 C69.0778776,66.945612 66.945612,69.0785157 66.7063542,71.7760676 C66.4715625,74.420026 65.0187891,76.6977604 62.72,78.0248437 C60.4212109,79.3519271 57.7223829,79.471237 55.3151301,78.3527865 C52.859388,77.2113671 49.9468229,77.9916667 48.3900521,80.2087891 C46.8645442,82.380612 44.4675,83.6266667 41.8133333,83.6266667 Z M30.9594041,74.497508 C33.4419352,74.497508 35.8555071,75.6828608 37.3620482,77.8286722 C38.3945723,79.2991805 40.0166667,80.1422222 41.8133333,80.1422222 C43.61,80.1422222 45.2320943,79.2991805 46.2646184,77.8286722 C48.4445988,74.7230232 52.5249953,73.6296161 55.9661214,75.2293453 C57.5950496,75.9860328 59.4221577,75.9052697 60.9777778,75.0069365 C62.5333979,74.108603 63.5174643,72.5672718 63.6758841,70.7780602 C64.0113613,66.9983507 66.9983507,64.0113613 70.7780602,63.6758841 C72.5672718,63.5168431 74.108603,62.5333979 75.0075577,60.9777778 C75.9052697,59.4221577 75.9860328,57.5950496 75.2293453,55.9661214 C73.6296161,52.5249953 74.7230232,48.4452202 77.8286722,46.2646184 C79.2985592,45.2320943 80.1422222,43.61 80.1422222,41.8133333 C80.1422222,40.0166667 79.2985592,38.3945723 77.8286722,37.3620482 C74.7230232,35.1820679 73.6296161,31.1016714 75.2287241,27.6605452 C75.9860328,26.0316171 75.9052697,24.204509 75.0069365,22.6488889 C74.108603,21.0932688 72.5672718,20.1092024 70.777439,19.9507826 C66.9983507,19.6153054 64.0113613,16.628316 63.6758841,12.8486065 C63.5168431,11.0593948 62.5333979,9.51806362 60.9777778,8.61973021 C59.4221577,7.72139696 57.5950496,7.64001264 55.9661214,8.39732135 C52.5243741,9.99705052 48.4445988,8.90302205 46.2646184,5.79799447 C46.2646184,5.79799447 46.2646184,5.79799447 46.2639972,5.79799447 C45.2320943,4.32748613 43.61,3.48444444 41.8133333,3.48444444 C40.0166667,3.48444444 38.3945723,4.32748613 37.3620482,5.79799447 C35.1820679,8.90302205 31.1016714,9.99642915 27.6605452,8.39732135 C26.0316171,7.64063385 24.204509,7.72139696 22.6488889,8.61973021 C21.0932688,9.51806362 20.1092024,11.0593948 19.9507826,12.8486065 C19.6153054,16.628316 16.628316,19.6153054 12.8486065,19.9507826 C11.0593948,20.1098236 9.51806362,21.0932688 8.61973021,22.6488889 C7.72139696,24.204509 7.64063385,26.0316171 8.39732135,27.6605452 C9.99705052,31.1016714 8.90364342,35.1820679 5.79799447,37.3620482 C4.32748613,38.3945723 3.48444444,40.0166667 3.48444444,41.8133333 C3.48444444,43.61 4.32748613,45.2320943 5.79799447,46.2646184 C8.90364342,48.4445988 9.99705052,52.5249953 8.39732135,55.9661214 C7.64063385,57.5950496 7.72139696,59.4221577 8.61973021,60.9777778 C9.51806362,62.5333979 11.0593948,63.5174643 12.8486065,63.6758841 C16.628316,64.0113613 19.6153054,66.9983507 19.9507826,70.7780602 C20.1098236,72.5672718 21.0932688,74.108603 22.6488889,75.0069365 C24.204509,75.9052697 26.0316171,75.9860328 27.6605452,75.2293453 C28.7241321,74.7348271 29.8486019,74.497508 30.9594041,74.497508 Z" id="Shape"></path>
                <path d="M19.78375,65.5489843 C13.8099609,60.0026692 10.1694141,52.4886979 9.53075513,44.3909375 C9.49545139,43.9413455 9.87060769,43.5023872 10.656224,43.0740625 C12.1044508,43.5033638 12.8641523,43.9423222 12.9353285,44.3909375 C13.9377778,50.7092579 15.9422266,57.5928646 21.4636588,62.72 C27.015078,67.8745704 34.232691,70.1201883 41.8130164,70.1201883 C49.3927039,70.1201883 56.1922407,67.2554964 61.7430219,62.100926 C67.2650921,56.9737906 69.0814535,50.9013021 71.0454942,44.3909375 C71.2469694,43.7230913 71.2469694,43.0740625 72.9704426,43.0740625 C74.6939158,43.0740625 74.1482292,43.7165495 74.0952734,44.3909375 C73.4572526,52.4886979 69.8160676,60.0026692 63.8429167,65.5489843 C57.8372266,71.1259245 50.0138151,74.1967187 41.8133333,74.1967187 C33.6128516,74.1967187 25.7894401,71.1259245 19.78375,65.5489843 Z" id="Path"></path>
                <path d="M11.772348,40.5213412 C9.85417705,40.7227353 10.688763,40.548776 10.656224,40.546224 C9.9818359,40.4926301 9.4784375,39.903099 9.53139327,39.2287109 C10.1713282,31.1328646 13.813151,23.6201692 19.7856641,18.0751301 C25.7913542,12.5001042 33.6141276,10.4533333 41.8133333,10.4533333 C50.0080729,10.4533333 57.8276563,12.4975521 63.8314324,18.0668359 C69.8033074,23.6061329 73.4527813,31.1124479 74.0990964,39.2025521 C74.1526903,39.8769401 75.042326,40.4964583 72.9691667,40.5213412 C70.8960073,40.546224 71.0885141,39.8975442 70.8960073,39.2287109 C68.9338805,32.4116211 66.9692331,26.027422 61.4490768,20.9066667 C55.8995715,15.7591146 49.387004,13.9377778 41.8124206,13.9377778 C34.2333711,13.9377778 28.1996701,15.7540104 22.6488889,20.9066667 C17.1274565,26.032526 14.5292231,31.7211197 13.9377778,39.2025521 C13.8873741,39.844401 13.690519,40.319947 11.772348,40.5213412 Z" id="Path"></path>
            </g>
        </g>
    </g>
</svg>