<?xml version="1.0" encoding="UTF-8"?>
<svg width="48px" height="37px" viewBox="0 0 48 37" version="1.1" xmlns="http://www.w3.org/2000/svg" xmlns:xlink="http://www.w3.org/1999/xlink">
    <!-- Generator: Sketch 63.1 (92452) - https://sketch.com -->
    <title>youtube</title>
    <desc>Created with Sketch.</desc>
    <g id="search" stroke="none" stroke-width="1" fill="none" fill-rule="evenodd">
        <g id="youtube" fill="#51B8B9" fill-rule="nonzero">
            <path d="M31.3883057,16.0305176 L20.7839355,10.2282714 C20.1741943,9.89465334 19.4534912,9.90710447 18.8558349,10.2612305 C18.2578125,10.6157227 17.901123,11.2419433 17.901123,11.9370117 L17.901123,23.4418945 C17.901123,24.133667 18.2556152,24.7587891 18.8496094,25.1136474 C19.1597901,25.2989502 19.5036621,25.3919678 19.8482666,25.3919678 C20.1639404,25.3919678 20.4803467,25.3139648 20.7714844,25.1572266 L31.3762208,19.454956 C32.0057373,19.1162109 32.3986817,18.461792 32.401624,17.746582 C32.4041748,17.0313721 32.0159912,16.3740234 31.3883057,16.0305176 L31.3883057,16.0305176 Z M20.7139893,21.9946289 L20.7139893,13.3959961 L28.6395263,17.7326661 L20.7139893,21.9946289 Z" id="Shape"></path>
            <path d="M47.6469727,8.5806885 L47.6447754,8.55871584 C47.604126,8.17236328 47.1994629,4.73583984 45.5288086,2.98791506 C43.5977783,0.932006813 41.4085693,0.682251 40.3557129,0.5625 C40.2685547,0.552612281 40.1887207,0.543457031 40.1173096,0.5339355 L40.0334473,0.525146438 C33.6877442,0.06372075 24.1043701,0.000732421875 24.0084229,0.000366210938 L24,0 L23.9915771,0.000366210938 C23.8956299,0.000732421875 14.3122558,0.06372075 7.90942387,0.525146438 L7.82482912,0.5339355 C7.75671384,0.543090844 7.68164062,0.551513625 7.59997556,0.561035156 C6.55920412,0.681152344 4.39343259,0.931274438 2.45690916,3.06152344 C0.865722656,4.79077144 0.405761719,8.1536865 0.358520531,8.53161619 L0.353027344,8.5806885 C0.338745094,8.74145513 -5.32907052e-15,12.5687256 -5.32907052e-15,16.4110107 L-5.32907052e-15,20.0028076 C-5.32907052e-15,23.8450928 0.338745094,27.6723633 0.353027344,27.8334961 L0.355590844,27.8576661 C0.396240187,28.237793 0.800537062,31.6113281 2.463501,33.3599854 C4.27917478,35.3470459 6.57495112,35.6099854 7.8098145,35.7513427 C8.00500491,35.7736817 8.17309575,35.7927246 8.28771975,35.8128662 L8.39868169,35.8282471 C12.0626221,36.1768799 23.550293,36.3486328 24.0373536,36.3555908 L24.052002,36.355957 L24.0666504,36.3555908 C24.1625977,36.3552246 33.7456055,36.2922364 40.0913086,35.8308105 L40.1751709,35.8220214 C40.2553711,35.8114013 40.3454589,35.8018799 40.4443359,35.791626 C41.479248,35.6817627 43.6333008,35.4536133 45.5430908,33.3522949 C47.1342773,31.6226807 47.5946045,28.2597656 47.6414795,27.8822021 L47.6469727,27.8331299 C47.6612549,27.6719971 48.0003662,23.8450927 48.0003662,20.0028076 L48.0003662,16.4110107 C48.0003662,12.5687256 47.6612549,8.74182131 47.6469727,8.5806885 L47.6469727,8.5806885 Z M45.1871338,20.0028076 C45.1871338,23.559082 44.8765869,27.2215576 44.8472901,27.5577393 C44.7279052,28.4838867 44.2426758,30.6115723 43.4674072,31.4542237 C42.2720947,32.7692871 41.0441895,32.8996583 40.1477051,32.9945068 C40.0393067,33.0058594 39.9389648,33.0168458 39.8481445,33.0281982 C33.7104492,33.4720459 24.4888916,33.5401612 24.0640869,33.5427246 C23.5876464,33.5357666 12.2680664,33.3625489 8.71582031,33.0325927 C8.5338135,33.0029297 8.33715825,32.9802246 8.12988281,32.9567871 C7.07849119,32.8363037 5.63928225,32.6715088 4.53259275,31.4542237 L4.50659175,31.4263916 C3.744873,30.6328125 3.27355959,28.6431885 3.15380859,27.5687256 C3.13146975,27.3145752 2.81286619,23.6088867 2.81286619,20.0028076 L2.81286619,16.4110107 C2.81286619,12.8587646 3.12268069,9.20031741 3.15270994,8.85717769 C3.29516606,7.76623537 3.78955078,5.76745603 4.53259275,4.95959475 C5.76452634,3.60461428 7.06347656,3.45446775 7.92260737,3.35522456 C8.00463862,3.34570312 8.08117678,3.33691406 8.15185547,3.32775881 C14.3789062,2.88171384 23.666748,2.81542969 24,2.81286619 C24.333252,2.8150635 33.6177979,2.88171384 39.7895508,3.32775881 C39.8653565,3.33728025 39.9481201,3.34680178 40.0371094,3.35705569 C40.9207763,3.45776362 42.2563477,3.61010737 43.4820557,4.91748047 L43.4934082,4.92956541 C44.255127,5.72314453 44.7264404,7.74755859 44.8461914,8.84362791 C44.8674317,9.08349609 45.1871338,12.7972412 45.1871338,16.4110107 L45.1871338,20.0028076 Z" id="Shape"></path>
        </g>
    </g>
</svg>