<?xml version="1.0" encoding="UTF-8"?>
<svg width="72px" height="59px" viewBox="0 0 72 59" version="1.1" xmlns="http://www.w3.org/2000/svg" xmlns:xlink="http://www.w3.org/1999/xlink">
    <!-- Generator: Sketch 61 (89581) - https://sketch.com -->
    <title>sort_icon_twitter</title>
    <desc>Created with Sketch.</desc>
    <g id="search" stroke="none" stroke-width="1" fill="none" fill-rule="evenodd">
        <g id="Artboard" transform="translate(-581.000000, -325.000000)" fill="#51B8B9" fill-rule="nonzero">
            <g id="sort_icon_twitter" transform="translate(581.000000, 325.000000)">
                <path d="M72,7.81270654 C67.4708863,8.01992704 67.5697632,8.00302217 67.0578003,8.04555683 L69.7401124,0.441110018 C69.7401124,0.441110018 61.3674316,3.49870299 59.244873,4.04565607 C53.6704102,-0.928181235 45.3845215,-1.14794392 39.4606934,2.46641777 C34.6096801,5.42694423 32.0059204,10.5109355 32.8743897,16.4532558 C23.4332886,15.1526746 15.4786376,10.7099762 9.19830319,3.2205912 L7.21197506,0.852279176 L5.7277222,3.55814252 C3.85180664,6.97728076 3.22888191,10.886659 3.97320553,14.5659134 C4.27862545,16.0753511 4.79772956,17.5149882 5.5167847,18.8630121 L3.81280514,18.2075409 L3.6106567,21.0339194 C3.40576172,23.9050139 4.36871334,27.2565328 6.18695072,29.9983871 C6.69891361,30.7705561 7.3580933,31.6185242 8.19360352,32.4550406 L7.31304928,32.3208926 L8.38751217,35.5595308 C9.79980469,39.8146401 12.7331543,43.1067193 16.5399171,44.9368035 C12.7380981,46.5383999 9.66687019,47.560324 4.61865234,49.2088176 L0,50.7160741 L4.26599128,53.0314904 C5.89251712,53.9143588 11.6400147,56.8628883 17.3188477,57.7473926 C29.9421387,59.7127154 44.154602,58.1122098 53.7225953,49.5578206 C61.7816163,42.3525457 64.4260254,32.1033111 63.876709,21.4374541 C63.7937622,19.8227702 64.2392578,18.281704 65.1313477,17.0989113 C66.9182739,14.7305991 71.9890137,7.8285207 72,7.81270654 Z M63.1425917,14.2759636 C61.6043842,16.2809327 60.8338548,18.8415696 60.9718771,21.4851668 C61.5473504,32.4699034 58.4857646,40.9886561 51.87153,46.8036791 C44.1451325,53.5969667 31.6826303,56.2633921 17.6807802,54.1192276 C15.1450481,53.7311511 12.5243351,52.8620155 10.3553316,51.9939937 C14.7498022,50.5179667 18.1433261,49.2022926 23.6237243,46.6700516 L31.2742668,43.1350477 L22.8275295,42.6072191 C18.7815367,42.3544404 15.4125375,40.4402266 13.3416325,37.3322739 C14.4412483,37.2699144 15.5015106,37.0961987 16.5572102,36.8088994 L24.6132644,34.6185222 L16.48991,32.6764693 C12.542586,31.7327251 10.2925943,29.4270941 9.10001303,27.658757 C8.31693608,26.4967545 7.80534088,25.3063563 7.49849796,24.2089405 C8.31294366,24.4221878 9.26255993,24.574189 10.7939231,24.7222929 L18.312717,25.4483356 L12.3555145,20.9116821 C8.06313476,17.6433764 6.34298894,12.7331228 7.60401085,8.0127317 C21.0001597,21.5770357 36.7289998,20.5575694 38.312264,20.9161363 C37.9637861,17.6116399 37.9546607,17.6038449 37.8634062,17.2892635 C35.8358471,10.2921939 40.279367,6.73937301 42.2835423,5.53672558 C46.4698387,3.02508547 53.1148715,2.64647424 57.7175164,6.78447226 C58.7116191,7.67754933 60.0559109,8.02887832 61.3140812,7.72376221 C62.4433546,7.44982585 63.3701573,7.15974287 64.2775684,6.84404788 L62.3886019,12.1100846 L64.8,12.111755 C64.3448687,12.7075109 63.799053,13.4207476 63.1425917,14.2759636 Z" id="Shape"></path>
            </g>
        </g>
    </g>
</svg>