<?xml version="1.0" encoding="UTF-8"?>
<svg width="43px" height="48px" viewBox="0 0 43 48" version="1.1" xmlns="http://www.w3.org/2000/svg" xmlns:xlink="http://www.w3.org/1999/xlink">
    <!-- Generator: Sketch 63.1 (92452) - https://sketch.com -->
    <title>tiktok</title>
    <desc>Created with Sketch.</desc>
    <g id="search" stroke="none" stroke-width="1" fill="none" fill-rule="evenodd">
        <g id="tiktok" fill="#56B8B8" fill-rule="nonzero">
            <path d="M15.5555304,48 C12.0614679,48 8.76615537,46.8853125 6.02584287,44.7759375 C5.51396787,44.3821875 5.02178037,43.951875 4.56240537,43.498125 C1.36365537,40.336875 -0.24603213,36.1265625 0.03053037,31.6425 C0.23959287,28.2534375 1.60459287,24.98625 3.87615537,22.4428125 C6.88459287,19.074375 11.0320929,17.2190625 15.5564679,17.2190625 C16.3336554,17.2190625 17.1183429,17.2771875 17.8908429,17.3915625 L19.0908429,17.5696875 L19.0908429,28.21875 L17.2430304,27.6084375 C16.7049054,27.4303125 16.1452179,27.3403125 15.5789679,27.3403125 C14.1483429,27.3403125 12.8086554,27.9009375 11.8064679,28.918125 C10.8089679,29.930625 10.2717804,31.269375 10.2924054,32.6896875 C10.3195929,34.520625 11.2842804,36.18 12.8724054,37.130625 C13.6036554,37.5675 14.4361554,37.8234375 15.2817804,37.8703125 C15.9492804,37.906875 16.6083429,37.8196875 17.2420929,37.610625 C19.4086554,36.8953125 20.8645929,34.8853125 20.8645929,32.61 L20.8739679,21.56625 L20.8739679,0 L31.0514679,0 L31.0636554,1.393125 C31.0692804,2.0240625 31.1339679,2.655 31.2558429,3.26625 C31.7339679,5.67 33.0820929,7.8121875 35.0517804,9.2971875 C36.8002179,10.61625 38.8870929,11.3128125 41.0845929,11.3128125 C41.1361554,11.3128125 41.1361554,11.3128125 41.6058429,11.345625 L42.9136554,11.4375 L42.9136554,20.0625 L42.9136554,21.46875 L42.4449054,21.4678125 L41.5102179,21.4678125 C41.5027179,21.4678125 41.4952179,21.4678125 41.4867804,21.4678125 L41.0377179,21.4678125 C41.0358429,21.4678125 41.0330304,21.4678125 41.0302179,21.4678125 C38.3199054,21.4678125 35.7802179,20.95125 33.2630304,19.8890625 C32.5130304,19.5721875 31.7827179,19.2103125 31.0777179,18.80625 L31.1095929,32.6634375 C31.0927179,36.7621875 29.4727179,40.606875 26.5486554,43.4971875 C24.1758429,45.841875 21.1814679,47.34 17.8889679,47.8275 C17.1211554,47.941875 16.3364679,48 15.5555304,48 Z M15.5555304,20.0315625 C11.8439679,20.0315625 8.44084287,21.553125 5.97334287,24.3159375 C4.12084287,26.390625 3.00709287,29.0540625 2.83646787,31.815 C2.61146787,35.4759375 3.92584287,38.9146875 6.53865537,41.4965625 C6.91646787,41.8696875 7.32053037,42.223125 7.74053037,42.5465625 C9.98490537,44.274375 12.6877179,45.1875 15.5555304,45.1875 C16.1986554,45.1875 16.8445929,45.1396875 17.4774054,45.0459375 C20.1745929,44.6465625 22.6280304,43.419375 24.5724054,41.4975 C26.9611554,39.136875 28.2839679,35.9990625 28.2980304,32.6615625 L28.2539679,13.3125 L30.5255304,15.0646875 C31.6983429,15.969375 32.9883429,16.72125 34.3580304,17.2996875 C36.2302179,18.09 38.1174054,18.52875 40.1002179,18.6328125 L40.1002179,14.090625 C37.6495929,13.906875 35.3349054,13.0359375 33.3577179,11.544375 C30.8358429,9.643125 29.1099054,6.898125 28.4967804,3.8165625 C28.4311554,3.485625 28.3777179,3.1509375 28.3383429,2.8134375 L23.6855304,2.8134375 L23.6855304,21.5671875 L23.6761554,32.6109375 C23.6761554,36.10125 21.4449054,39.18375 18.1233429,40.280625 C17.1549054,40.6003125 16.1470929,40.7334375 15.1270929,40.678125 C13.8277179,40.606875 12.5489679,40.2140625 11.4277179,39.54375 C8.99678037,38.0896875 7.52021787,35.5425 7.47896787,32.7309375 C7.44709287,30.5521875 8.27115537,28.4971875 9.80115537,26.94375 C11.3358429,25.385625 13.3870929,24.5278125 15.5770929,24.5278125 C15.8114679,24.5278125 16.0439679,24.538125 16.2764679,24.5578125 L16.2764679,20.05125 C16.0364679,20.038125 15.7955304,20.0315625 15.5555304,20.0315625 Z" id="Shape"></path>
        </g>
    </g>
</svg>